<?xml version="1.0" encoding="utf-8"?>
<!-- Generator: Adobe Illustrator 23.1.1, SVG Export Plug-In . SVG Version: 6.00 Build 0)  -->
<svg version="1.1" id="Capa_1" xmlns="http://www.w3.org/2000/svg" xmlns:xlink="http://www.w3.org/1999/xlink" x="0px" y="0px"
	 viewBox="0 0 512 512" style="enable-background:new 0 0 512 512;" xml:space="preserve">
<g>
	<rect y="160" width="114.5" height="352"/>
	<path d="M426.4,164.1c-1.2-0.4-2.4-0.8-3.6-1.2c-1.5-0.4-3.1-0.6-4.6-0.9c-6.1-1.2-12.7-2.1-20.5-2.1l0,0l0,0
		c-66.8,0-109.1,48.5-123,67.3V160H160v352h114.5V320c0,0,86.5-120.5,123-32c0,79,0,224,0,224H512V274.5
		C512,221.3,475.6,177,426.4,164.1z"/>
	<circle cx="56" cy="56" r="56"/>
</g>
</svg>
