<?xml version="1.0" encoding="utf-8"?>
<!-- Generator: Adobe Illustrator 21.1.0, SVG Export Plug-In . SVG Version: 6.00 Build 0)  -->
<svg version="1.1" id="Layer_1" xmlns="http://www.w3.org/2000/svg" xmlns:xlink="http://www.w3.org/1999/xlink" x="0px" y="0px"
	 viewBox="0 0 512 512" style="enable-background:new 0 0 512 512;" xml:space="preserve">
<style type="text/css">
	.st0{fill:#E6E6E6;}
	.st1{fill:#1E2C33;}
	.st2{fill:#F5F5F5;}
	.st3{fill:#586874;}
</style>
<g>
	<rect x="212" y="341.9" class="st0" width="88" height="36"/>
	<path class="st1" d="M83.9,303.9V126.3c0-5,3.4-6.4,8.2-6.4h327.9c4.8,0,7.8,1.4,7.8,6.4v177.6H83.9z"/>
	<path class="st2" d="M83.9,303.9v30c0,4.8,3.4,10,8.2,10h327.9c4.8,0,7.8-5.2,7.8-10v-30H83.9z"/>
	<rect x="100" y="138" class="st3" width="311.9" height="148"/>
	<path class="st2" d="M328,385.9c0-4.4-3.6-8-8-8H192c-4.4,0-8,3.6-8,8l0,0c0,4.4,3.6,8,8,8h128C324.4,393.9,328,390.3,328,385.9
		L328,385.9z"/>
	<circle class="st1" cx="256" cy="321.9" r="8"/>
</g>
</svg>
