<?xml version="1.0" encoding="utf-8"?>
<!-- Generator: Adobe Illustrator 21.1.0, SVG Export Plug-In . SVG Version: 6.00 Build 0)  -->
<svg version="1.1" id="Layer_1" xmlns="http://www.w3.org/2000/svg" xmlns:xlink="http://www.w3.org/1999/xlink" x="0px" y="0px"
	 viewBox="0 0 512 512" style="enable-background:new 0 0 512 512;" xml:space="preserve">
<style type="text/css">
	.st0{fill:#DDDDDD;}
	.st1{display:none;fill:#C5D8DF;}
	.st2{fill:#5B7E96;}
	.st3{fill:#2D2D2D;}
	.st4{fill:#3B5360;}
</style>
<g>
	<path class="st0" d="M495.3,450.8H16.7c-9.2,0-16.7-7.5-16.7-16.7V177.7c0-9.2,7.5-16.7,16.7-16.7h478.6c9.2,0,16.7,7.5,16.7,16.7
		v256.4C512,443.3,504.5,450.8,495.3,450.8z"/>
	<path class="st1" d="M495.3,161H256v289.7h239.3c9.2,0,16.7-7.5,16.7-16.7V177.7C512,168.5,504.5,161,495.3,161z"/>
	<path class="st2" d="M512,194.4H0V77.9c0-9.2,7.5-16.7,16.7-16.7h478.6c9.2,0,16.7,7.5,16.7,16.7L512,194.4L512,194.4z"/>
	<path class="st3" d="M157.3,363.2c-6-7-5.1-17.6,1.9-23.5l39.7-33.8l-39.7-33.8c-7-6-7.9-16.5-1.9-23.5c6-7,16.5-7.9,23.5-1.9
		l54.7,46.5c3.7,3.2,5.9,7.8,5.9,12.7s-2.1,9.5-5.9,12.7l-54.7,46.5C173.8,371.1,163.2,370.3,157.3,363.2z"/>
	<g>
		<path class="st4" d="M443.6,147.8c-12.3,0-22.3-10-22.3-22.3s10-22.3,22.3-22.3s22.3,10,22.3,22.3S455.8,147.8,443.6,147.8z"/>
		<path class="st4" d="M382.9,147.8c-12.3,0-22.3-10-22.3-22.3s10-22.3,22.3-22.3s22.3,10,22.3,22.3S395.2,147.8,382.9,147.8z"/>
		<path class="st4" d="M322.3,147.8c-12.3,0-22.3-10-22.3-22.3s10-22.3,22.3-22.3s22.3,10,22.3,22.3S334.6,147.8,322.3,147.8z"/>
	</g>
	<path class="st3" d="M342,369.1h-66c-9.2,0-16.7-7.5-16.7-16.7s7.5-16.7,16.7-16.7h66c9.2,0,16.7,7.5,16.7,16.7
		S351.2,369.1,342,369.1z"/>
</g>
</svg>
