<?xml version="1.0" encoding="utf-8"?>
<!-- Generator: Adobe Illustrator 21.1.0, SVG Export Plug-In . SVG Version: 6.00 Build 0)  -->
<svg version="1.1" id="Calque_1" xmlns="http://www.w3.org/2000/svg" xmlns:xlink="http://www.w3.org/1999/xlink" x="0px" y="0px"
	 viewBox="0 0 512 512" style="enable-background:new 0 0 512 512;" xml:space="preserve">
<style type="text/css">
	.st0{fill:#FF637B;}
	.st1{fill:#2D2D2D;}
	.st2{fill:#DDDDDD;}
	.st3{fill:#5B7E96;}
</style>
<g>
	<path class="st0" d="M140.6,189.8c-31.6-4.3-68.4,9.4-93.8,34.8L4.4,267c-4.8,4.8-5.8,12.2-2.4,18.1c3.3,5.8,10.3,8.8,16.9,7
		c26.9-7.2,62.6-9.6,71.3-2.9L140.6,189.8z"/>
	<path class="st0" d="M321.3,371.6l-99.5,48c5.5,7.6,5.1,31.4-1.4,75.2c-1,6.5,2.4,12.7,8.1,15.6c5.8,2.9,12.8,1.8,17.3-2.8
		l42.4-42.4C312.3,441.2,325.2,404.5,321.3,371.6z"/>
	<path class="st1" d="M236.8,424.8c-35,18.9-39.5,19.9-44.8,23.5c-5.9,3.8-13.6,3-18.7-2.1L67.3,340.1c-4.9-4.9-5.9-12.7-2.1-18.7
		c3.6-5.3,4-8.7,23.1-45.2l42-0.4l106.1,106.1L236.8,424.8z"/>
	<path class="st2" d="M236.8,424.8L88.3,276.3C161.9,137.3,250.3,50.6,353,16.6l72.1,71.7l70.4,70.4
		C461.6,261,375.1,350.1,236.8,424.8z"/>
	<path class="st3" d="M378.9,134.6l-0.6-0.6c-29.3-29.3-76.8-29.3-106.1,0c-29.3,29.3-29.3,76.8,0,106.1l0.6,0.6
		c29.3,28.4,76.4,28.4,105.4-0.6C407.3,210.9,407.3,163.8,378.9,134.6z"/>
	<path class="st0" d="M495.6,158.7c-32.5-2.3-67.2-17.6-95.5-45.4l-0.6-0.6C371,84.3,355.1,49.3,353,16.6c9.8-3.4,19.7-6.2,29.7-8.5
		C419-0.1,457-2.1,496.4,2.2c3.8,0.4,7.4,2.3,9.5,5.3c2.1,2.1,3.6,4.9,3.8,8.1c4.5,39.2,2.1,77.2-6.2,113.5
		C501.3,139,498.7,148.8,495.6,158.7z"/>
	<path class="st0" d="M234.2,292.8c-0.2-3.6-1.7-6.8-4.2-9.3c-2.5-3.4-6.6-5.7-10.8-5.7c-55.2-0.4-67.5,19.1-70.6,22.3
		c-91.9,91.9-92.9,137-92.9,141.7c0.2,4,1.7,7.6,4.5,10.4c0.2,0.2,0.4,0.4,0.9,0.4c2.1,2.1,5.1,3.4,8.3,3.6
		c7.6,0.8,50.7-0.2,143-92.5C232.9,342.9,234.4,323.6,234.2,292.8z"/>
</g>
</svg>
